# xmcd CD database file
#
# Track frame offsets:
#	150
#	19368
#	32940
#
# Disc length: 937 seconds
#
# Revision: 0
# Processed by: cddbd v1.5.1PL0 Copyright (c) Steve Scherf et al.
# Submitted via: CDex 1.51
#
DISCID=2103a703
DTITLE=Bruce Dickinson - Shoot All The Clowns (Remix) (EP)
DYEAR=1994
DGENRE=Hard Rock
TTITLE0=Shoot All The Clowns (Remix)
TTITLE1=Tibet
TTITLE2=Tears Of The Dragon (a)The First Bit b)The Long Bit c)The Last Bit)
EXTD=YEAR: 1994
EXTT0=
EXTT1=
EXTT2=
PLAYORDER=
